<svg width="71" height="16" viewBox="0 0 71 16" fill="none" xmlns="http://www.w3.org/2000/svg">
<path d="M13.2403 0.799999L6.21631 12H3.09631L0.552314 0.799999H3.80031L5.40031 8.08L9.97631 0.799999H13.2403ZM19.7839 5.952L23.5439 12H20.0079L17.4319 7.968L15.9759 9.28L15.4319 12H12.3119L14.5519 0.799999H17.6719L16.7599 5.376L21.8159 0.799999H25.5439L19.7839 5.952ZM30.0474 3.184C30.8688 3.184 31.5994 3.33333 32.2394 3.632C32.8901 3.92 33.3968 4.35733 33.7594 4.944C34.1221 5.53067 34.3034 6.24 34.3034 7.072C34.3034 7.17867 34.2928 7.36 34.2714 7.616L27.8394 8.8C27.9568 9.152 28.1701 9.41333 28.4794 9.584C28.7994 9.744 29.2261 9.824 29.7594 9.824C30.1328 9.824 30.4954 9.76533 30.8474 9.648C31.2101 9.52 31.5354 9.344 31.8234 9.12L33.0874 11.024C32.0741 11.7707 30.8421 12.144 29.3914 12.144C28.4741 12.144 27.6634 11.984 26.9594 11.664C26.2661 11.3333 25.7274 10.8747 25.3434 10.288C24.9701 9.69067 24.7834 8.992 24.7834 8.192C24.7834 7.24267 25.0021 6.38933 25.4394 5.632C25.8874 4.864 26.5061 4.26667 27.2954 3.84C28.0954 3.40267 29.0128 3.184 30.0474 3.184ZM29.8874 5.344C29.3328 5.344 28.8794 5.51467 28.5274 5.856C28.1861 6.18667 27.9568 6.62933 27.8394 7.184L31.4874 6.512C31.4234 6.13867 31.2474 5.85067 30.9594 5.648C30.6821 5.44533 30.3248 5.344 29.8874 5.344ZM38.5728 12.144C37.6875 12.144 36.9995 11.9253 36.5088 11.488C36.0181 11.0507 35.7728 10.4427 35.7728 9.664C35.7728 9.39733 35.8048 9.12 35.8688 8.832L37.6128 0.127999H40.6528L38.9408 8.72C38.9195 8.80533 38.9088 8.92267 38.9088 9.072C38.9088 9.31733 38.9781 9.49867 39.1168 9.616C39.2555 9.73333 39.4475 9.792 39.6928 9.792C39.9488 9.792 40.1728 9.74933 40.3648 9.664L40.0448 11.92C39.5648 12.0693 39.0741 12.144 38.5728 12.144ZM45.1034 12.144C44.2181 12.144 43.5301 11.9253 43.0394 11.488C42.5488 11.0507 42.3034 10.4427 42.3034 9.664C42.3034 9.39733 42.3354 9.12 42.3994 8.832L44.1434 0.127999H47.1834L45.4714 8.72C45.4501 8.80533 45.4394 8.92267 45.4394 9.072C45.4394 9.31733 45.5088 9.49867 45.6474 9.616C45.7861 9.73333 45.9781 9.792 46.2234 9.792C46.4794 9.792 46.7034 9.74933 46.8954 9.664L46.5754 11.92C46.0954 12.0693 45.6048 12.144 45.1034 12.144ZM52.9658 12.144C52.0485 12.144 51.2485 11.984 50.5658 11.664C49.8831 11.3333 49.3551 10.8693 48.9818 10.272C48.6085 9.67467 48.4218 8.98133 48.4218 8.192C48.4218 7.24267 48.6511 6.38933 49.1098 5.632C49.5685 4.87467 50.2031 4.27733 51.0138 3.84C51.8245 3.40267 52.7365 3.184 53.7498 3.184C54.6671 3.184 55.4671 3.34933 56.1498 3.68C56.8325 4 57.3605 4.45867 57.7338 5.056C58.1071 5.64267 58.2938 6.33067 58.2938 7.12C58.2938 8.06933 58.0645 8.928 57.6058 9.696C57.1471 10.4533 56.5125 11.0507 55.7018 11.488C54.9018 11.9253 53.9898 12.144 52.9658 12.144ZM53.1418 9.696C53.7498 9.696 54.2458 9.472 54.6298 9.024C55.0138 8.576 55.2058 7.99467 55.2058 7.28C55.2058 6.768 55.0618 6.36267 54.7738 6.064C54.4858 5.76533 54.0858 5.616 53.5738 5.616C52.9658 5.616 52.4698 5.84 52.0858 6.288C51.7018 6.736 51.5098 7.32267 51.5098 8.048C51.5098 8.56 51.6538 8.96533 51.9418 9.264C52.2298 9.552 52.6298 9.696 53.1418 9.696ZM70.4864 3.328L69.0784 10.4C68.7478 12.0747 68.1024 13.3013 67.1424 14.08C66.1824 14.8587 64.9184 15.248 63.3504 15.248C61.6011 15.248 60.1931 14.8747 59.1264 14.128L60.4864 12.016C60.8384 12.2933 61.2758 12.512 61.7984 12.672C62.3211 12.832 62.8651 12.912 63.4304 12.912C64.1878 12.912 64.7584 12.7467 65.1424 12.416C65.5371 12.096 65.7984 11.6107 65.9264 10.96L65.9904 10.672C65.3398 11.2587 64.5344 11.552 63.5744 11.552C62.8811 11.552 62.2464 11.4027 61.6704 11.104C61.0944 10.8053 60.6358 10.3787 60.2944 9.824C59.9531 9.25867 59.7824 8.60267 59.7824 7.856C59.7824 7.00267 59.9904 6.21867 60.4064 5.504C60.8224 4.78933 61.3931 4.224 62.1184 3.808C62.8438 3.392 63.6491 3.184 64.5344 3.184C65.1958 3.184 65.7664 3.30667 66.2464 3.552C66.7371 3.79733 67.0944 4.18133 67.3184 4.704L67.5904 3.328H70.4864ZM64.4704 9.12C65.0784 9.12 65.5691 8.928 65.9424 8.544C66.3264 8.16 66.5184 7.65867 66.5184 7.04C66.5184 6.61333 66.3744 6.272 66.0864 6.016C65.7984 5.74933 65.4038 5.616 64.9024 5.616C64.2944 5.616 63.7984 5.81333 63.4144 6.208C63.0304 6.592 62.8384 7.09333 62.8384 7.712C62.8384 8.13867 62.9824 8.48 63.2704 8.736C63.5584 8.992 63.9584 9.12 64.4704 9.12Z" fill="#E01252"/>
</svg>
