<svg width="16" height="16" viewBox="0 0 16 16" fill="none" xmlns="http://www.w3.org/2000/svg">
<g clip-path="url(#clip0_7753_493)">
<rect width="16" height="16" rx="2" fill="white"/>
<path d="M1 10.446C1.01605 10.3931 1.02988 10.3392 1.04815 10.2868C1.12452 10.0679 1.2756 9.89315 1.43166 9.72148C1.75983 9.36104 2.12674 9.03638 2.49089 8.70913C3.15442 8.11271 3.73938 7.45561 4.21808 6.71813C4.28891 6.60921 4.34481 6.49149 4.39794 6.37428C4.4162 6.33382 4.40679 6.28144 4.40624 6.23477C4.40624 6.22751 4.38631 6.21661 4.37359 6.21454C4.31935 6.20572 4.2712 6.22284 4.22693 6.25084C3.98731 6.40228 3.78144 6.58639 3.60213 6.79903C3.39958 7.04019 3.19538 7.28032 2.98121 7.51214C2.82515 7.68121 2.64418 7.82798 2.42282 7.92185C2.30439 7.97216 2.17766 8.00432 2.05148 7.98046C1.88158 7.94779 1.75485 7.85184 1.68235 7.69833C1.57167 7.46391 1.62978 7.2466 1.76426 7.04175C1.89542 6.84156 2.08911 6.6979 2.28889 6.56306C2.67738 6.30063 3.09742 6.08644 3.51967 5.87743C3.91702 5.68087 4.32156 5.49573 4.68737 5.24886C4.89988 5.1052 5.10021 4.94546 5.30497 4.79247C5.44167 4.68978 5.58611 4.6011 5.75324 4.54612C5.85119 4.51397 5.9497 4.51345 6.0482 4.51915C6.14118 4.52434 6.22087 4.61458 6.22806 4.7069C6.23747 4.82255 6.20592 4.93146 6.15999 5.03674C5.85064 5.75452 5.39075 6.39398 4.96352 7.05056C4.78034 7.33166 4.59938 7.61379 4.41786 7.8954C4.40679 7.91252 4.39572 7.92963 4.39074 7.95453C4.40236 7.94934 4.41509 7.94519 4.42505 7.93845C5.14891 7.43694 5.84012 6.89913 6.48706 6.31204C6.65142 6.16268 6.7693 5.98427 6.88773 5.80534C6.98568 5.65702 7.09691 5.5201 7.25685 5.42571C7.43892 5.31836 7.62819 5.3085 7.81469 5.41171C7.906 5.46201 7.94474 5.54396 7.95193 5.64665C7.96411 5.82401 7.87224 5.95938 7.75769 6.08073C7.63206 6.2135 7.49094 6.33331 7.35702 6.45881C7.33101 6.48319 7.30389 6.50808 7.28286 6.53557C6.95026 6.97225 6.69293 7.44679 6.47544 7.94104C6.45441 7.98928 6.43227 8.03699 6.41677 8.09196C6.43172 8.08004 6.44832 8.06966 6.46105 8.05566C7.01667 7.46339 7.6376 6.93906 8.32493 6.48423C8.96191 6.06206 9.63817 5.70732 10.3737 5.45838C10.5856 5.38681 10.8048 5.33132 11.0234 5.27998C11.134 5.25405 11.2519 5.26182 11.3615 5.29968C11.5297 5.35777 11.5591 5.4755 11.5032 5.63575C11.4871 5.68139 11.4583 5.72392 11.4301 5.76437C11.0864 6.25966 10.7411 6.75391 10.3974 7.2492C10.3178 7.36433 10.2425 7.48206 10.16 7.60705C10.1905 7.60705 10.2176 7.60964 10.243 7.60705C10.5795 7.56556 10.8557 7.40945 11.1091 7.20874C11.6166 6.80733 12.0638 6.35198 12.4644 5.85721C12.7849 5.4615 13.0903 5.05489 13.4008 4.65192C13.6061 4.38535 13.848 4.15975 14.1839 4.04461C14.5132 3.93155 14.8181 4.03476 14.9498 4.33867C15.004 4.46418 15.0101 4.59798 14.988 4.73386C14.9315 5.07719 14.7257 5.33754 14.4728 5.57456C13.7118 6.28922 12.8883 6.93232 11.9846 7.4831C11.6836 7.66617 11.3715 7.83006 11.0416 7.95712C11.0936 8.03336 11.1517 8.10597 11.196 8.18532C11.2691 8.31808 11.3039 8.46226 11.315 8.61111C11.3211 8.69253 11.3316 8.77447 11.3244 8.85486C11.3122 8.99852 11.2973 9.1427 11.2674 9.28377C11.232 9.44921 11.18 9.61102 11.1346 9.77438C11.0887 9.94242 11.0372 10.1094 10.9973 10.2785C10.9625 10.4268 10.937 10.5772 10.9143 10.7276C10.9022 10.808 10.8972 10.8905 10.9033 10.9714C10.9121 11.0995 10.9392 11.225 11.0095 11.3391C11.0715 11.4402 11.1623 11.5035 11.2862 11.5123C11.3515 11.517 11.3554 11.5491 11.351 11.5932C11.3394 11.7068 11.263 11.782 11.1733 11.8468C11.0521 11.9345 10.9071 11.963 10.7605 11.9863C10.5452 12.0206 10.3366 11.9889 10.1412 11.9096C9.88776 11.8069 9.683 11.6466 9.56567 11.4034C9.51089 11.2898 9.48322 11.1705 9.46994 11.0461C9.45278 10.8863 9.46772 10.7292 9.49484 10.5725C9.52085 10.4206 9.54354 10.2671 9.58726 10.1193C9.63928 9.94398 9.70956 9.77283 9.77708 9.60168C9.85456 9.4046 9.94199 9.21064 10.0173 9.01252C10.0892 8.82426 10.1373 8.62926 10.1196 8.427C10.1086 8.29941 10.056 8.18947 9.92152 8.1236C9.88333 8.1848 9.84293 8.24444 9.80807 8.30616C9.68134 8.52917 9.56236 8.7558 9.43009 8.9757C9.15117 9.44091 8.87115 9.90612 8.58116 10.3656C8.42565 10.6125 8.23362 10.8355 7.99565 11.0201C7.84955 11.1337 7.68685 11.2213 7.50146 11.2577C7.15502 11.3251 6.76155 11.2042 6.62652 10.8267C6.5745 10.6809 6.58114 10.5368 6.62264 10.391C6.69403 10.1411 6.85065 9.93775 7.03991 9.75986C7.33543 9.48188 7.6387 9.21064 7.94806 8.94666C8.46162 8.50842 8.93645 8.03855 9.33158 7.50177C9.43562 7.3607 9.53192 7.21393 9.62102 7.06353C9.66584 6.98781 9.68798 6.89913 9.71454 6.81511C9.72395 6.78555 9.71177 6.75961 9.66584 6.75754C9.56125 6.75287 9.47049 6.79281 9.38028 6.83067C9.05322 6.96966 8.75659 7.15585 8.46771 7.35344C7.62044 7.93223 6.84511 8.58466 6.17383 9.34133C5.84123 9.7163 5.56176 10.1219 5.35644 10.571C5.30497 10.6835 5.25185 10.7961 5.19042 10.904C5.0897 11.0824 4.93862 11.2079 4.725 11.2561C4.60325 11.2836 4.48371 11.2665 4.36639 11.2276C4.18764 11.1679 4.05704 11.0569 3.97402 10.8998C3.94525 10.8448 3.92809 10.7816 3.91979 10.7204C3.89821 10.5523 3.9541 10.3973 4.02272 10.2458C4.16772 9.92582 4.36971 9.63591 4.56451 9.34237C4.73718 9.08202 4.90652 8.8196 5.07642 8.55769C5.08804 8.53954 5.09246 8.51724 5.10021 8.49701C5.10298 8.49701 5.10575 8.49701 5.10796 8.49701C5.10741 8.49494 5.1063 8.49286 5.10575 8.49079C5.10409 8.49338 5.10243 8.49597 5.10132 8.49805C5.01388 8.56236 4.92478 8.62459 4.83956 8.69149C4.46434 8.98556 4.0836 9.27339 3.71779 9.57783C3.31049 9.91753 2.95741 10.3039 2.66355 10.7364C2.54125 10.9169 2.39847 11.0824 2.19315 11.1887C2.04096 11.2675 1.87992 11.2888 1.70836 11.2639C1.40399 11.2203 1.18429 11.0715 1.05645 10.8085C1.02933 10.751 1.01882 10.6856 1 10.6239C1 10.5648 1 10.5051 1 10.446Z" fill="#C91245"/>
</g>
<defs>
<clipPath id="clip0_7753_493">
<rect width="16" height="16" rx="2" fill="white"/>
</clipPath>
</defs>
</svg>
